<svg width="631" height="180" viewBox="0 0 631 180" fill="none" xmlns="http://www.w3.org/2000/svg">
<path fill-rule="evenodd" clip-rule="evenodd" d="M82.432 179.2H196.228H197.888H339.332C351.108 179.2 361.86 176.896 371.588 172.288C381.316 167.68 388.996 161.536 394.628 153.856C400.431 146.005 403.332 137.387 403.332 128V25.6H553.434C560.431 25.6 566.405 28.16 571.354 33.28C576.474 38.2293 579.034 44.2027 579.034 51.2C579.034 58.1973 576.474 64.256 571.354 69.376C566.405 74.3253 560.431 76.8 553.434 76.8H424.736V102.4H579.034C586.031 102.4 592.005 104.96 596.954 110.08C602.074 115.029 604.634 121.003 604.634 128C604.634 134.997 602.074 141.056 596.954 146.176C592.005 151.125 586.031 153.6 579.034 153.6H424.736L400.736 179.2H579.034C588.421 179.2 596.954 176.896 604.634 172.288C612.485 167.68 618.714 161.536 623.322 153.856C627.93 146.005 630.234 137.387 630.234 128C630.234 116.907 626.991 107.008 620.506 98.304C614.191 89.4293 605.999 83.2853 595.93 79.872C598.661 75.776 600.794 71.3387 602.33 66.56C603.866 61.6107 604.634 56.4907 604.634 51.2C604.634 41.8133 602.33 33.28 597.722 25.6C593.114 17.7493 586.885 11.52 579.034 6.912C571.354 2.304 562.821 0 553.434 0H403.332H390.236H377.732V77H377.75V102.5H377.732V128C377.732 132.608 375.94 136.875 372.356 140.8C368.943 144.725 364.335 147.883 358.532 150.272C352.729 152.491 346.329 153.6 339.332 153.6H197.888H196.228H82.432C70.656 153.6 60.5013 150.699 51.968 144.896C43.6053 139.093 37.12 131.413 32.512 121.856C27.904 112.128 25.6 101.376 25.6 89.6C25.6 77.824 27.904 67.072 32.512 57.344C37.12 47.616 43.6053 39.936 51.968 34.304C60.5013 28.5013 70.656 25.6 82.432 25.6H196.228V51.2C196.228 62.976 199.819 76.5 206.236 83.5L206.649 83.9512L206.986 84.3195C213.023 90.9181 217.659 95.985 227.972 99.5C237.259 102.665 245.804 102.599 255.564 102.524L255.567 102.524C257.089 102.512 258.64 102.5 260.228 102.5H350.75V77H260.228C257.817 77 255.346 77.0594 252.96 77.1167L252.959 77.1168C248.42 77.2259 244.185 77.3277 241.236 77C236.736 76.5 232.236 75 226.736 69C221.715 63.5224 221.771 57.6281 221.819 52.6106C221.824 52.132 221.828 51.6615 221.828 51.2V0H197.888H196.228H82.432C69.9733 0 58.7093 2.304 48.64 6.912C38.5707 11.52 29.8667 18.0053 22.528 26.368C15.36 34.56 9.81333 44.1173 5.888 55.04C1.96267 65.792 0 77.312 0 89.6C0 102.059 1.96267 113.749 5.888 124.672C9.81333 135.424 15.36 144.896 22.528 153.088C29.8667 161.28 38.5707 167.68 48.64 172.288C58.7093 176.896 69.9733 179.2 82.432 179.2Z" fill="white"/>
</svg>
