<svg width="631" height="180" viewBox="0 0 631 180" fill="none" xmlns="http://www.w3.org/2000/svg">
<path d="M630.498 128C630.498 137.387 628.194 146.005 623.586 153.856C618.978 161.536 612.749 167.68 604.898 172.288C597.218 176.896 588.685 179.2 579.298 179.2H401L425 153.6H579.298C586.295 153.6 592.269 151.125 597.218 146.176C602.338 141.056 604.898 134.997 604.898 128C604.898 121.003 602.338 115.029 597.218 110.08C592.269 104.96 586.295 102.4 579.298 102.4H425V76.8H553.698C560.695 76.8 566.669 74.3253 571.618 69.376C576.738 64.256 579.298 58.1973 579.298 51.2C579.298 44.2027 576.738 38.2293 571.618 33.28C566.669 28.16 560.695 25.6 553.698 25.6H393.5L390.5 0H419.554H553.698C563.085 0 571.618 2.304 579.298 6.912C587.149 11.52 593.378 17.7493 597.986 25.6C602.594 33.28 604.898 41.8133 604.898 51.2C604.898 56.4907 604.13 61.6107 602.594 66.56C601.058 71.3387 598.925 75.776 596.194 79.872C606.263 83.2853 614.455 89.4293 620.77 98.304C627.255 107.008 630.498 116.907 630.498 128Z" fill="white"/>
<path d="M403.596 128C403.596 137.387 400.695 146.005 394.892 153.856C389.26 161.536 381.58 167.68 371.852 172.288C362.124 176.896 351.372 179.2 339.596 179.2H196.492V153.6H339.596C346.593 153.6 352.993 152.491 358.796 150.272C364.599 147.883 369.207 144.725 372.62 140.8C376.204 136.875 377.996 132.608 377.996 128V102.5H260.492C248.716 102.5 238 101.104 228.236 99.5C218.472 97.896 211 90 205.5 84C200 78 196.492 62.976 196.492 51.2V0H222.092C222.092 0 222.092 45.9 222.092 51.2C222.092 56.5 222 62.5 227 68.5C232 74.5 234.5 76.5 241.5 77C248.5 77.5 253.495 77 260.492 77H377.996V0H403.596V128Z" fill="white"/>
<path d="M198.152 179.2H82.696C70.2373 179.2 58.9733 176.896 48.904 172.288C38.8347 167.68 30.1307 161.28 22.792 153.088C15.624 144.896 10.0773 135.424 6.15201 124.672C2.22667 113.749 0.264008 102.059 0.264008 89.6C0.264008 77.312 2.22667 65.792 6.15201 55.04C10.0773 44.1173 15.624 34.56 22.792 26.368C30.1307 18.0053 38.8347 11.52 48.904 6.912C58.9733 2.304 70.2373 0 82.696 0H198.152V25.6H82.696C70.92 25.6 60.7653 28.5013 52.232 34.304C43.8693 39.936 37.384 47.616 32.776 57.344C28.168 67.072 25.864 77.824 25.864 89.6C25.864 101.376 28.168 112.128 32.776 121.856C37.384 131.413 43.8693 139.093 52.232 144.896C60.7653 150.699 70.92 153.6 82.696 153.6H198.152V179.2Z" fill="white"/>
</svg>
